<svg width="104" height="24" viewBox="0 0 104 24" fill="none" xmlns="http://www.w3.org/2000/svg">
<path fill-rule="evenodd" clip-rule="evenodd" d="M28.2246 9.74191V18.1795L28.6376 18.295C29.3671 18.4992 30.6735 18.7065 31.7714 18.7923C34.2678 18.9876 35.8977 18.506 37.2061 17.1862C37.6944 16.6937 37.8899 16.4295 38.1628 15.8936C39.5877 13.0947 38.934 8.89343 36.8225 7.27898C35.8423 6.52947 34.9051 6.26866 33.4063 6.32818C32.4405 6.36661 32.1914 6.41708 31.4003 6.73488C31.1914 6.81877 31.0056 6.88743 30.9873 6.88743C30.969 6.88743 30.9541 5.63124 30.9541 4.09589V1.30435H29.5893H28.2246V9.74191ZM41.4156 1.37882C41.0971 1.47518 40.7391 1.74839 40.5239 2.05937C40.3566 2.30119 40.3239 2.4309 40.3026 2.93759C40.2755 3.58617 40.3566 3.84168 40.7128 4.22945C41.0413 4.58692 41.4166 4.73512 41.9949 4.73577C42.4435 4.73628 42.5589 4.70779 42.8546 4.52318C43.3861 4.19146 43.6213 3.79796 43.6558 3.18259C43.6927 2.52204 43.5461 2.12528 43.1276 1.75346C42.6655 1.34293 42.0091 1.19922 41.4156 1.37882ZM74.9126 9.93275V18.5612H76.2773H77.642V13.8144C77.642 9.3118 77.6487 9.06418 77.7717 8.99769C78.0651 8.83919 79.1931 8.68367 79.8001 8.71803C80.7454 8.77147 81.2978 9.06476 81.6105 9.67898C81.9716 10.3884 81.9765 10.4484 82.0193 14.6095L82.0594 18.5249L83.4421 18.5446L84.8248 18.5643V14.8085C84.8248 10.2211 84.7695 9.65918 84.2041 8.49021C83.6951 7.43799 82.6743 6.67557 81.4339 6.42099C80.7154 6.27351 79.2106 6.27308 78.5399 6.42012C78.2633 6.48074 77.9482 6.54955 77.8395 6.57297L77.642 6.61553V3.95994V1.30435H76.2773H74.9126V9.93275ZM87.7524 1.40753C87.1749 1.61556 86.8302 1.98853 86.6881 2.55917C86.4351 3.57543 86.9825 4.50962 87.9498 4.71235C88.7436 4.87869 89.5383 4.51172 89.9097 3.80739C90.0892 3.46696 90.066 2.58056 89.8676 2.19678C89.4967 1.47968 88.5415 1.12323 87.7524 1.40753ZM45.5628 3.43876C45.541 3.49611 45.5371 6.13089 45.5542 9.29374C45.5841 14.8215 45.5912 15.0711 45.7372 15.7302C46.1061 17.3957 47.0062 18.3478 48.5159 18.6691C49.1786 18.8102 50.7996 18.8101 51.4599 18.6688C51.9983 18.5537 52.7577 18.3122 52.9329 18.2004C53.0268 18.1405 53.0142 18.0007 52.8333 17.0957C52.7195 16.5259 52.6063 16.0367 52.5819 16.0085C52.5575 15.9804 52.2629 16.042 51.9274 16.1454C51.4338 16.2975 51.1594 16.335 50.4912 16.3416C49.7447 16.3489 49.6306 16.3322 49.3061 16.1684C48.9052 15.966 48.6821 15.6761 48.5022 15.1234C48.4 14.8097 48.3778 14.3127 48.3536 11.7998L48.3251 8.84514H50.4497H52.5742V7.68502V6.5249H50.4553H48.3363V4.92973V3.33456H46.9694C45.8469 3.33456 45.5953 3.3532 45.5628 3.43876ZM57.6021 6.34298C55.7636 6.75931 54.378 7.97063 53.6616 9.78774C53.3432 10.5951 53.2205 11.3812 53.2216 12.6054C53.2234 14.6735 53.6957 16.0414 54.8008 17.1791C55.5367 17.9366 56.4306 18.4118 57.6298 18.6827C58.3689 18.8498 60.145 18.8478 61.1576 18.6788C62.0909 18.523 63.053 18.2315 63.1076 18.0878C63.1412 17.9994 62.8957 16.2775 62.8009 15.9372C62.7696 15.8248 62.742 15.8237 62.465 15.9234C61.3891 16.3107 59.6983 16.4877 58.7011 16.3174C57.6757 16.1422 56.8223 15.5551 56.4254 14.7515C56.2416 14.3794 56.0987 13.8703 56.0954 13.5769L56.0937 13.4143L59.9904 13.3956L63.887 13.3769L63.909 12.5793C63.9351 11.6316 63.8265 10.5747 63.6279 9.84516C63.1545 8.10629 61.9414 6.85589 60.2956 6.41041C59.6883 6.24596 58.1955 6.20862 57.6021 6.34298ZM68.1376 6.35037C67.8286 6.40671 67.4084 6.52403 67.2039 6.61104C65.7466 7.23069 65.0003 8.31873 65.0003 9.82399C65.0003 10.8732 65.3816 11.7358 66.1109 12.3367C66.6499 12.7808 67.0995 13.0158 68.492 13.5813C69.7054 14.0739 70.1163 14.2958 70.4123 14.618C70.651 14.8778 70.7535 15.3016 70.6611 15.6463C70.4919 16.2771 69.9744 16.4864 68.5917 16.4833C67.5612 16.4811 67.1088 16.4064 66.0294 16.0606C65.6043 15.9244 65.2475 15.8223 65.2364 15.8334C65.2006 15.8695 64.7849 17.9029 64.7849 18.0417C64.7849 18.1486 64.9336 18.2211 65.5211 18.4006C66.4704 18.6907 66.872 18.76 67.9552 18.8199C68.9017 18.8724 70.072 18.7792 70.7945 18.5939C71.9098 18.3079 72.807 17.6309 73.2031 16.7765C73.3927 16.3674 73.4322 16.184 73.4611 15.5794C73.5618 13.4683 72.7365 12.4907 69.9707 11.4446C68.4151 10.8562 67.9258 10.5217 67.7988 9.95973C67.6575 9.33428 67.9841 8.87066 68.7179 8.65539C69.335 8.47426 70.7201 8.54895 71.5726 8.80925C71.9281 8.91786 72.2692 9.02141 72.3306 9.03939C72.4211 9.06592 72.4855 8.87008 72.6728 7.99789C72.7997 7.4071 72.903 6.88577 72.9024 6.83936C72.9012 6.74278 71.6343 6.42527 70.7953 6.31122C70.0347 6.20789 68.8208 6.22573 68.1376 6.35037ZM94.9525 6.35806C94.5732 6.39946 93.1133 6.6623 92.5642 6.78803L92.0794 6.89904V14.9416V22.9841H93.48H94.8806V20.5914C94.8806 19.2754 94.8912 18.1986 94.9042 18.1986C94.9171 18.1986 95.1193 18.2772 95.3536 18.3733C96.7707 18.9546 98.5609 18.909 99.9045 18.2574C101.16 17.6486 102.104 16.3704 102.544 14.682C102.712 14.0349 102.733 13.8165 102.739 12.6518C102.744 11.6233 102.718 11.2266 102.614 10.7803C102.064 8.41125 100.492 6.85669 98.1963 6.4099C97.7074 6.31477 95.6498 6.28185 94.9525 6.35806ZM40.5965 12.5249L40.6149 18.5249L41.9976 18.5446L43.3802 18.5643V12.5446V6.5249H41.9792H40.5781L40.5965 12.5249ZM86.9796 12.5446V18.5643L88.3623 18.5446L89.745 18.5249L89.7633 12.5249L89.7817 6.5249H88.3807H86.9796V12.5446ZM58.1325 8.65379C57.1549 8.90307 56.5046 9.62177 56.2068 10.7823C56.1446 11.0244 56.0937 11.2423 56.0937 11.2665C56.0937 11.2906 57.2296 11.3104 58.6179 11.3104H61.1421L61.0977 10.8811C60.991 9.85067 60.3863 8.99965 59.5587 8.71513C59.1702 8.58165 58.5244 8.55388 58.1325 8.65379ZM32.247 8.81157C32.0297 8.87262 31.6496 9.01778 31.4023 9.13415L30.9526 9.34573L30.9713 12.77L30.99 16.1942L31.2055 16.2563C31.324 16.2904 31.825 16.3379 32.3188 16.3616C33.6664 16.4266 34.3864 16.2018 35.0576 15.5061C35.7091 14.8309 36.0548 13.7713 36.0526 12.4562C36.0497 10.7067 35.5219 9.50909 34.5282 8.99741C34.098 8.77589 33.9782 8.74834 33.3457 8.72572C32.8648 8.70853 32.5169 8.73573 32.247 8.81157ZM95.2577 8.78677L94.8806 8.85623V12.2993V15.7424L95.3604 15.962C96.7074 16.5786 98.1415 16.4757 98.9257 15.7063C99.5772 15.0671 99.9061 14.0304 99.9061 12.6155C99.9061 10.3973 99.1139 9.15504 97.4758 8.80454C96.9422 8.69034 95.8298 8.68142 95.2577 8.78677Z" fill="black"/>
<path d="M19.4623 17.6933H16.8089L16.7889 13.2907L16.7688 8.88368L16.6021 8.46698C16.2675 7.6306 15.386 6.91945 14.475 6.75102C14.2407 6.70766 13.4083 6.6722 12.6255 6.6722H11.2021V3.98942V1.30664L12.6926 1.30722C13.5123 1.30758 14.4739 1.34108 14.8294 1.38169C18.5283 1.8044 21.3805 4.52148 22.0103 8.22248C22.1004 8.75164 22.1199 9.65327 22.1199 13.2799V17.6933H19.4623Z" fill="#00CAB7"/>
<path d="M0.682478 16.3094C0.586804 15.8001 0.571289 14.7132 0.571289 8.51121V1.30469H3.22891H5.88653V8.14679C5.88653 12.4659 5.9134 15.1328 5.95937 15.3794C6.1278 16.2827 6.69955 17.0307 7.52241 17.4241L8.00545 17.6551L12.407 17.6754L16.8043 17.6957V20.4152V23.139L12.2253 23.1088C7.27747 23.0762 7.30075 23.0778 6.06064 22.6595C3.29722 21.7272 1.24532 19.3045 0.682478 16.3094Z" fill="#772ED0"/>
</svg>
