<?xml version="1.0" encoding="UTF-8"?>
<svg version="1.1" xmlns="http://www.w3.org/2000/svg" width="1010" height="884">
<path d="M0 0 C26.07 0 52.14 0 79 0 C79.0093457 6.15245361 79.01869141 12.30490723 79.02832031 18.64379883 C79.06208235 38.96796321 79.11742633 59.29202643 79.18390274 79.61610889 C79.22368145 91.93898036 79.25607993 104.26178808 79.27099609 116.5847168 C79.2840186 127.32764125 79.31099875 138.07042535 79.35461307 148.81327075 C79.37721418 154.49949027 79.39291147 160.18553677 79.39188385 165.87180519 C79.39113646 171.22920373 79.40911954 176.58621999 79.44116783 181.94351959 C79.44965262 183.90458875 79.45142646 185.86570087 79.44580269 187.82678032 C79.41094688 201.85527177 80.50909826 213.84291773 90 225 C98.02610195 232.64751224 107.21198658 237.07988332 118.34675598 237.15821838 C119.40539856 237.1680072 120.46404114 237.17779602 121.55476379 237.18788147 C122.70562973 237.19363693 123.85649567 237.1993924 125.04223633 237.20532227 C126.26216278 237.21522186 127.48208923 237.22512146 128.73898315 237.23532104 C132.07535224 237.26145859 135.41169805 237.28334124 138.74810624 237.30332303 C142.23815844 237.32523414 145.72816782 237.35259769 149.21818542 237.37937927 C155.82307335 237.429237 162.42798513 237.47420141 169.03291959 237.51740164 C176.5540815 237.56683326 184.07520044 237.62172937 191.59632075 237.67708123 C207.06417409 237.790795 222.53206699 237.89765701 238 238 C237.91589434 222.54383791 237.82068626 207.08777321 237.71247292 191.6317625 C237.66247623 184.45431814 237.61603253 177.27688447 237.578125 170.09936523 C237.54505299 163.83915894 237.50513938 157.57903886 237.45720994 151.31892806 C237.43209505 148.0081321 237.41129167 144.69740257 237.39665604 141.38654137 C237.37968538 137.67903802 237.35062416 133.97180636 237.31884766 130.2644043 C237.31668747 129.18186371 237.31452728 128.09932312 237.31230164 126.98397827 C237.16171431 113.15989914 234.70095291 101.16548317 225 90.81640625 C211.61886084 78.66361385 194.71755782 79.5010691 177.75 79.3125 C170.5725 79.209375 163.395 79.10625 156 79 C156 52.93 156 26.86 156 0 C163.486875 -0.061875 170.97375 -0.12375 178.6875 -0.1875 C181.00225342 -0.21481201 183.31700684 -0.24212402 185.7019043 -0.27026367 C223.72371155 -0.52978189 255.50622928 9.62555868 283.5 36.125 C308.44158571 61.82509547 317.22881714 94.59147761 317.11352539 129.67504883 C317.11367142 130.86688278 317.11381744 132.05871674 317.1139679 133.28666687 C317.11327823 137.17680767 317.10553066 141.06689895 317.09765625 144.95703125 C317.0952283 147.67372104 317.09431712 150.39041079 317.09336853 153.10710144 C317.09027866 159.49571735 317.08209735 165.88431584 317.07201904 172.27292413 C317.05967936 180.27113877 317.05425668 188.26935632 317.04882812 196.26757812 C317.0391302 210.51173226 317.01909119 224.75584849 317 239 C291.26 239 265.52 239 239 239 C239 264.74 239 290.48 239 317 C206.58292614 317.1209091 206.58292614 317.1209091 192.90820312 317.14648438 C183.49840338 317.16422541 174.08868473 317.1849824 164.67895508 317.22631836 C157.82325419 317.25642012 150.96761964 317.27562176 144.11185449 317.28226548 C140.48891025 317.28614296 136.86615564 317.29511695 133.24327278 317.31719017 C115.41962738 317.42157876 98.17030914 317.34947689 81.125 311.4375 C80.39506836 311.18701904 79.66513672 310.93653809 78.91308594 310.6784668 C49.70221902 300.15770901 25.16616543 278.97252212 11.64477539 250.90258789 C2.38376447 230.91091021 -0.62380058 211.23960106 -0.45410156 189.36035156 C-0.45296977 187.27861045 -0.4536134 185.19686776 -0.45587158 183.11512756 C-0.4570067 177.53163479 -0.4336948 171.94849449 -0.40557575 166.36508274 C-0.38035895 160.50486154 -0.37820426 154.64462988 -0.37347412 148.78436279 C-0.3611034 137.71746219 -0.32836266 126.650722 -0.28807616 115.58389163 C-0.24317342 102.97184044 -0.22132512 90.35978108 -0.20129442 77.7476697 C-0.15962402 51.83167072 -0.08634645 25.91589129 0 0 Z " fill="#772EC6" transform="translate(339,144)"/>
<path d="M0 0 C7.486875 -0.061875 14.97375 -0.12375 22.6875 -0.1875 C26.15963013 -0.22846802 26.15963013 -0.22846802 29.7019043 -0.27026367 C67.72371155 -0.52978189 99.50622928 9.62555868 127.5 36.125 C152.44158571 61.82509547 161.22881714 94.59147761 161.11352539 129.67504883 C161.11367142 130.86688278 161.11381744 132.05871674 161.1139679 133.28666687 C161.11327823 137.17680767 161.10553066 141.06689895 161.09765625 144.95703125 C161.0952283 147.67372104 161.09431712 150.39041079 161.09336853 153.10710144 C161.09027866 159.49571735 161.08209735 165.88431584 161.07201904 172.27292413 C161.05967936 180.27113877 161.05425668 188.26935632 161.04882812 196.26757812 C161.0391302 210.51173226 161.01909119 224.75584849 161 239 C134.93 239 108.86 239 82 239 C81.95101562 230.39292969 81.90203125 221.78585937 81.8515625 212.91796875 C81.81165739 206.75839195 81.77053745 200.5988326 81.72766876 194.4392767 C81.67235507 186.46841121 81.61986898 178.49756067 81.578125 170.52661133 C81.54505482 164.21366781 81.50514217 157.90080981 81.45720994 151.58796102 C81.43209317 148.24920636 81.41129058 144.91056417 81.39665604 141.57173729 C81.37968734 137.83310189 81.35062654 134.09473609 81.31884766 130.35620117 C81.31668747 129.26430984 81.31452728 128.17241852 81.31230164 127.04743958 C81.16266967 113.19828249 78.72076169 101.18661538 69 90.81640625 C55.61886084 78.66361385 38.71755782 79.5010691 21.75 79.3125 C14.5725 79.209375 7.395 79.10625 0 79 C0 52.93 0 26.86 0 0 Z " fill="#00BFAD" transform="translate(495,144)"/>
<path d="M0 0 C10.23 0 20.46 0 31 0 C31.33 19.47 31.66 38.94 32 59 C39.92 56.525 39.92 56.525 48 54 C52.25661596 53.57878601 55.97745481 53.31939526 60.1875 53.4375 C61.21633301 53.45409668 62.24516602 53.47069336 63.30517578 53.48779297 C78.73567426 53.9584878 91.27483333 59.28243809 101.96875 70.59765625 C116.81757498 88.15924733 118.20649964 111.04325338 117 133 C115.36746667 149.60458242 107.57865568 165.33857287 94.73046875 176.0859375 C73.79563015 190.76128931 49.98009859 191.00834845 25.375 187.75 C24.54871094 187.64091309 23.72242187 187.53182617 22.87109375 187.41943359 C14.99037019 186.23203389 7.8282619 184.08753651 0 182 C0 121.94 0 61.88 0 0 Z M31 87 C30.26452507 90.23287332 30.26452507 90.23287332 30.41650391 94.02587891 C30.41416748 94.73672134 30.41183105 95.44756378 30.40942383 96.1799469 C30.40780878 98.52956583 30.44183822 100.87722213 30.4765625 103.2265625 C30.48335033 104.85655 30.48807348 106.4865473 30.49081421 108.11654663 C30.50149469 111.53143801 30.52820293 114.94567529 30.56787109 118.36035156 C30.61881935 122.74669092 30.64389117 127.13265464 30.65880775 131.51925087 C30.67356836 135.69257398 30.69881599 139.86580788 30.7265625 144.0390625 C30.73147327 144.84017078 30.73638405 145.64127907 30.74144363 146.46666336 C30.75765232 148.72217889 30.78105412 150.97748968 30.80712891 153.23291016 C30.81998932 154.51847809 30.83284973 155.80404602 30.84609985 157.12857056 C30.67372793 159.89647753 30.67372793 159.89647753 32 161 C45.15793283 163.3939171 60.09229294 164.07852966 71.484375 156.3046875 C80.18249846 149.2836532 83.8748336 139.97603169 85.625 129.125 C87.08396297 115.25158853 85.79271251 99.80994964 76.75 88.625 C71.37678758 82.91740311 65.28002707 80.51615649 57.5625 79.76171875 C48.60178043 79.50218571 38.19020084 81.29610172 31 87 Z " fill="#000000" transform="translate(100,508)"/>
<path d="M0 0 C2.18561704 -0.00964952 4.37026907 -0.04070757 6.55566406 -0.07226562 C24.50894734 -0.20971482 40.62415862 4.19405281 53.95239258 16.70141602 C67.03671781 29.91003679 71.91467871 48.74034728 72.39941406 66.86523438 C72.02827614 86.49188117 67.8366927 105.49283773 54.08691406 120.24023438 C41.43589612 131.63754783 26.45265561 135.75655167 9.64941406 135.17773438 C2.08691406 134.24023438 2.08691406 134.24023438 -12.91308594 129.24023438 C-13.24308594 145.08023438 -13.57308594 160.92023438 -13.91308594 177.24023438 C-24.14308594 177.24023438 -34.37308594 177.24023438 -44.91308594 177.24023438 C-44.91308594 120.81023437 -44.91308594 64.38023437 -44.91308594 6.24023438 C-15.1534956 0.04031972 -15.1534956 0.04031972 0 0 Z M-13.91308594 28.24023438 C-13.91308594 52.33023438 -13.91308594 76.42023438 -13.91308594 101.24023438 C-2.58423096 106.90466186 7.20689039 110.77715076 19.77441406 107.11523438 C28.53869312 103.68777525 32.78388592 98.9708038 36.86035156 90.53320312 C39.58750238 83.21158486 40.45222032 76.21137643 40.39941406 68.42773438 C40.39377441 67.55262207 40.38813477 66.67750977 40.38232422 65.77587891 C40.16454505 54.11283425 37.84357368 42.85700456 29.20019531 34.39257812 C20.97851313 27.8184629 12.08188735 26.10618785 1.71191406 26.05273438 C0.46667969 26.03855469 -0.77855469 26.024375 -2.06152344 26.00976562 C-6.6611259 26.16635796 -6.6611259 26.16635796 -13.91308594 28.24023438 Z " fill="#000000" transform="translate(837.9130859375,561.759765625)"/>
<path d="M0 0 C9.9 0 19.8 0 30 0 C30 18.81 30 37.62 30 57 C33.96 56.01 37.92 55.02 42 54 C45.55859375 53.61181641 45.55859375 53.61181641 48.4375 53.6015625 C49.51773438 53.59769531 50.59796875 53.59382812 51.7109375 53.58984375 C52.79632812 53.60144531 53.88171875 53.61304688 55 53.625 C56.08539062 53.61339844 57.17078125 53.60179687 58.2890625 53.58984375 C72.88016437 53.6420792 85.41352673 57.6541284 96 68 C108.33628164 83.00191033 108.30330362 102.33947716 108.1953125 120.765625 C108.19157486 122.65419361 108.18873144 124.54276419 108.18673706 126.43133545 C108.1791597 131.36319485 108.15956297 136.29493342 108.1373291 141.22674561 C108.1167425 146.27484504 108.10770814 151.3229643 108.09765625 156.37109375 C108.0763106 166.24745702 108.04117765 176.12369948 108 186 C97.77 186 87.54 186 77 186 C76.98541748 183.60911133 76.97083496 181.21822266 76.95581055 178.75488281 C76.90525703 170.81595506 76.83862652 162.87721919 76.76428509 154.93848038 C76.71973994 150.12973996 76.68044974 145.32108118 76.65356445 140.51220703 C76.6273722 135.86305629 76.58685975 131.21422243 76.53681374 126.56526947 C76.52025192 124.80009685 76.50867163 123.03486956 76.50238609 121.26963043 C76.5726724 102.60712821 76.5726724 102.60712821 69 86 C59.86070562 79.85688666 49.52812583 80.00742853 39 82 C38.13375 82.185625 37.2675 82.37125 36.375 82.5625 C34 83 34 83 30 83 C30 116.99 30 150.98 30 186 C20.1 186 10.2 186 0 186 C0 124.62 0 63.24 0 0 Z " fill="#000000" transform="translate(607,508)"/>
<path d="M0 0 C12.40924647 9.75604456 17.69465281 25.61113323 19.94140625 40.62890625 C19.94140625 49.53890625 19.94140625 58.44890625 19.94140625 67.62890625 C-8.10859375 67.62890625 -36.15859375 67.62890625 -65.05859375 67.62890625 C-60.0254556 83.8007102 -60.0254556 83.8007102 -48.05859375 94.06640625 C-40.92735396 97.36142106 -33.72699761 97.98835938 -25.99609375 97.94140625 C-25.07868408 97.93866699 -24.16127441 97.93592773 -23.21606445 97.93310547 C-15.20656651 97.8115059 -7.82878128 96.61938907 -0.05859375 94.62890625 C1.41389085 94.26103101 2.88654986 93.89385323 4.359375 93.52734375 C5.54144531 93.23085938 6.72351563 92.934375 7.94140625 92.62890625 C8.61570592 96.02326981 9.27948905 99.41960818 9.94140625 102.81640625 C10.1321875 103.77611328 10.32296875 104.73582031 10.51953125 105.72460938 C10.7 106.65595703 10.88046875 107.58730469 11.06640625 108.546875 C11.23398437 109.40047607 11.4015625 110.25407715 11.57421875 111.13354492 C11.94735854 113.66935728 12.00553621 116.06972022 11.94140625 118.62890625 C-10.46083496 127.43777156 -39.44885493 129.93057044 -61.93359375 120.31640625 C-77.24977671 112.69235073 -87.49130043 102.02639698 -93.37109375 85.75390625 C-99.83044849 64.43526336 -98.76160809 40.755102 -89.05859375 20.62890625 C-86.9777146 17.05166457 -84.65604886 13.84423174 -82.05859375 10.62890625 C-81.42244141 9.71625 -81.42244141 9.71625 -80.7734375 8.78515625 C-73.0796643 -1.56732145 -59.47385668 -7.45436897 -47.21875 -9.94921875 C-30.33985862 -12.20251945 -14.32635543 -9.54184204 0 0 Z M-58.05859375 25.62890625 C-62.12483935 31.8569533 -63.40757733 37.19933238 -65.05859375 44.62890625 C-46.90859375 44.62890625 -28.75859375 44.62890625 -10.05859375 44.62890625 C-12.1573701 31.14961122 -12.1573701 31.14961122 -19.93359375 20.75390625 C-32.79638838 12.0072059 -47.78542864 13.90385913 -58.05859375 25.62890625 Z " fill="#000000" transform="translate(468.05859375,571.37109375)"/>
<path d="M0 0 C-1.29165308 8.43373483 -2.99383248 16.7078409 -5 25 C-6.3125 24.70833333 -7.625 24.41666667 -8.9375 24.125 C-9.77023437 23.94324219 -10.60296875 23.76148438 -11.4609375 23.57421875 C-12.99306727 23.22772171 -14.52113468 22.86123042 -16.0390625 22.45703125 C-27.27372351 19.57245613 -40.10922466 18.37858546 -51 23 C-54.43339672 25.80914277 -54.89050373 27.12402984 -55.4375 31.5 C-54.95359427 35.37124585 -54.50504354 37.02526079 -52 40 C-45.87585435 44.66502717 -38.82243566 47.23143992 -31.6875 49.9375 C-2.95269298 60.85011296 -2.95269298 60.85011296 3.5 74.75 C7.62176945 85.05442364 7.69356707 98.39108538 3.32421875 108.6015625 C-2.16549425 118.5445825 -10.44633764 123.28554057 -20.80078125 127.10546875 C-29.74662771 129.60681044 -38.4209916 130.3592936 -47.6875 130.3125 C-48.82654785 130.30831055 -49.9655957 130.30412109 -51.13916016 130.29980469 C-64.50499545 130.12161882 -76.43814927 127.68690264 -89 123 C-88.42029353 114.50430168 -86.76198299 106.31124051 -85 98 C-80.57994056 96.59969391 -77.30639696 97.92039174 -73.0625 99.375 C-71.65833052 99.84348551 -70.25339697 100.30968798 -68.84765625 100.7734375 C-68.22898682 100.98403809 -67.61031738 101.19463867 -66.97290039 101.41162109 C-60.73214812 103.27280325 -54.65000226 103.21876132 -48.1875 103.25 C-47.13240234 103.270625 -46.07730469 103.29125 -44.99023438 103.3125 C-38.61219098 103.34429087 -33.7471057 102.85686555 -28 100 C-25.96844943 96.95267415 -25.68439935 96.10580195 -25.625 92.625 C-25.59664062 91.87476563 -25.56828125 91.12453125 -25.5390625 90.3515625 C-26.2034462 86.96207954 -27.57395417 85.44941064 -30 83 C-32.4402063 81.52907425 -34.75147492 80.26938806 -37.3125 79.0625 C-38.01528076 78.72041504 -38.71806152 78.37833008 -39.44213867 78.02587891 C-44.15596603 75.76834521 -48.94128289 73.7645334 -53.8125 71.875 C-67.67674309 66.46064822 -78.48691376 60.78664319 -84.87890625 46.859375 C-86.19452633 43.5038562 -86.86133783 40.60521645 -87 37 C-87.0928125 35.1128125 -87.0928125 35.1128125 -87.1875 33.1875 C-86.98698727 22.80094037 -83.92269368 14.08139833 -76.9375 6.3125 C-57.71646826 -11.54151871 -22.84973836 -8.88600936 0 0 Z " fill="#000000" transform="translate(586,567)"/>
<path d="M0 0 C9.9 0 19.8 0 30 0 C30 11.22 30 22.44 30 34 C45.18 34 60.36 34 76 34 C76 42.58 76 51.16 76 60 C60.82 60 45.64 60 30 60 C30.0974057 67.59508117 30.20042992 75.18967556 30.31738281 82.78442383 C30.35545001 85.36315412 30.39033987 87.94193351 30.421875 90.52075195 C30.46801261 94.24708494 30.52592291 97.9730864 30.5859375 101.69921875 C30.59748871 102.8351799 30.60903992 103.97114105 30.62094116 105.14152527 C30.85270893 120.41832278 30.85270893 120.41832278 36.29296875 134.4140625 C42.05649409 139.76873364 49.27107863 139.56895596 56.6875 139.37109375 C63.36723487 138.95589165 69.65446353 137.04224162 76 135 C77.51436083 139.31263628 78.66246285 143.59496645 79.625 148.0625 C80.01558594 149.84333984 80.01558594 149.84333984 80.4140625 151.66015625 C80.91935998 154.54035191 81.12105088 157.08927647 81 160 C63.62062589 168.2301363 43.38646956 169.41379381 25 164 C14.90507331 159.96956285 8.60591008 154.08729997 4.1875 144.1875 C0.17956891 134.4891275 -0.29195808 124.45568591 -0.22705078 114.09301758 C-0.22734283 112.85270782 -0.22763489 111.61239807 -0.22793579 110.33450317 C-0.22679011 106.96946038 -0.21683517 103.60467013 -0.20278788 100.23967195 C-0.1901929 96.70964967 -0.18910317 93.17962319 -0.18673706 89.64958191 C-0.18054784 82.98108975 -0.16417206 76.31266403 -0.14403808 69.64420098 C-0.12159894 62.04555088 -0.1106656 54.44689742 -0.10064721 46.84822237 C-0.07980323 31.23210335 -0.04315942 15.61607571 0 0 Z " fill="#000000" transform="translate(289,530)"/>
<path d="M0 0 C10.23 0 20.46 0 31 0 C31 42.9 31 85.8 31 130 C20.77 130 10.54 130 0 130 C0 87.1 0 44.2 0 0 Z " fill="#000000" transform="translate(235,564)"/>
<path d="M0 0 C9.9 0 19.8 0 30 0 C30 42.9 30 85.8 30 130 C20.1 130 10.2 130 0 130 C0 87.1 0 44.2 0 0 Z " fill="#000000" transform="translate(738,564)"/>
<path d="M0 0 C3.90788937 4.01644185 5.37339314 8.7552703 5.625 14.3125 C5.35351043 19.63787232 4.31093196 24.29532455 0.41015625 28.11328125 C-5.39048107 32.63929063 -10.31394911 34.09231058 -17.75 33.3125 C-23.88303302 31.23350576 -28.31728646 28.83209967 -31.5625 23.125 C-33.58226851 16.64048005 -33.57848083 10.49935605 -30.93359375 4.171875 C-28.38480335 0.16783463 -24.24797035 -2.88873041 -19.734375 -4.33203125 C-11.96338519 -5.72407864 -6.68221609 -4.10045078 0 0 Z " fill="#000000" transform="translate(263.75,512.6875)"/>
<path d="M0 0 C4.89599616 3.78326976 6.90107191 8.02883319 8 14 C8.26242729 20.27726069 6.73375278 24.98891074 3 30 C-2.5521219 34.16092962 -8.13544262 35.65084354 -15 35 C-20.83493697 33.81119976 -24.17044056 31.3168368 -27.87109375 26.71875 C-31.1124684 21.78378513 -30.40493289 15.6540629 -30 10 C-28.2931915 4.7847518 -25.45098136 2.14186919 -21 -1 C-13.64105385 -4.3595189 -6.98312269 -3.82095392 0 0 Z " fill="#000000" transform="translate(764,511)"/>
</svg>
